<?xml version="1.0" encoding="UTF-8" standalone="no"?>
<!DOCTYPE svg PUBLIC "-//W3C//DTD SVG 1.1//EN" "http://www.w3.org/Graphics/SVG/1.1/DTD/svg11.dtd">
<svg xmlns="http://www.w3.org/2000/svg" version="1.1" viewBox="0 0 81 48">
<path fill="#e40036" d="
  M 32.09 14.45
  C 23.76 8.30 12.20 13.15 11.99 23.75
  C 11.75 36.18 26.29 39.25 34.32 31.34
  A 1.00 1.00 0.0 0 1 35.73 31.35
  L 39.29 34.92
  A 1.00 1.00 0.0 0 1 39.29 36.34
  Q 30.04 45.52 17.50 41.76
  C 4.79 37.94 1.08 21.28 9.48 11.36
  C 17.04 2.45 31.26 2.77 39.40 11.35
  A 1.00 0.99 -44.4 0 1 39.38 12.74
  L 35.89 16.23
  A 1.00 0.99 -48.7 0 1 34.58 16.32
  Q 33.32 15.36 32.09 14.45
  Z"
/>
<path fill="#e40036" d="
  M 60.03 16.56
  L 50.38 41.53
  A 0.34 0.34 0.0 0 1 50.07 41.75
  L 43.29 41.75
  A 0.34 0.34 0.0 0 1 42.97 41.29
  L 56.61 5.97
  A 0.34 0.34 0.0 0 1 56.92 5.75
  L 63.68 5.75
  A 0.34 0.34 0.0 0 1 63.99 5.97
  L 77.59 41.29
  A 0.34 0.34 0.0 0 1 77.27 41.75
  L 70.53 41.75
  A 0.34 0.34 0.0 0 1 70.22 41.53
  L 60.67 16.56
  A 0.34 0.34 0.0 0 0 60.03 16.56
  Z"
/>
</svg>
