<?xml version="1.0" encoding="UTF-8" standalone="no"?>
<!DOCTYPE svg PUBLIC "-//W3C//DTD SVG 1.1//EN" "http://www.w3.org/Graphics/SVG/1.1/DTD/svg11.dtd">
<svg xmlns="http://www.w3.org/2000/svg" version="1.1" viewBox="0 -2 204 45">
<path fill="#e40136" d="
  M 41.78 41.67
  C 36.07 42.45 31.22 39.54 28.63 34.52
  A 1.00 1.00 0.0 0 1 29.01 33.20
  L 33.38 30.61
  A 1.01 1.01 0.0 0 1 34.78 31.01
  Q 36.48 34.25 40.14 35.08
  A 1.02 1.01 -48.5 0 0 40.73 35.04
  C 45.91 33.00 43.79 29.60 40.81 27.06
  C 35.93 22.92 28.14 17.47 30.49 10.32
  C 33.54 1.01 44.88 2.56 49.94 8.93
  A 1.00 0.99 49.8 0 1 49.83 10.28
  L 46.17 13.65
  A 1.00 1.00 0.0 0 1 44.82 13.66
  C 42.34 11.43 39.05 8.21 36.84 13.10
  A 1.00 1.00 0.0 0 0 37.10 14.28
  Q 42.45 18.76 46.87 22.62
  C 54.02 28.86 51.85 40.30 41.78 41.67
  Z"
/>
<path fill="#e40136" d="
  M 67.67 40.59
  C 61.26 38.71 56.68 32.13 55.76 25.94
  C 53.76 12.41 65.08 1.51 78.51 4.17
  Q 84.59 5.37 90.12 10.23
  A 1.00 1.00 0.0 0 1 90.14 11.72
  L 86.36 15.20
  A 1.01 1.00 46.5 0 1 84.97 15.16
  Q 79.54 9.69 72.84 10.87
  C 55.99 13.83 61.26 40.03 80.27 33.78
  Q 81.33 33.44 85.18 30.29
  A 1.00 1.00 0.0 0 1 86.55 30.38
  L 89.90 34.01
  A 1.01 1.00 46.7 0 1 89.86 35.41
  Q 80.54 44.37 67.67 40.59
  Z"
/>
<path fill="#e40136" d="
  M 12.50 25.20
  L 12.50 33.30
  A 0.45 0.45 0.0 0 0 12.95 33.75
  L 24.80 33.75
  A 0.45 0.45 0.0 0 1 25.25 34.20
  L 25.25 40.30
  A 0.45 0.45 0.0 0 1 24.80 40.75
  L 5.95 40.75
  A 0.45 0.45 0.0 0 1 5.50 40.30
  L 5.50 5.20
  A 0.45 0.45 0.0 0 1 5.95 4.75
  L 24.80 4.75
  A 0.45 0.45 0.0 0 1 25.25 5.20
  L 25.25 11.05
  A 0.45 0.45 0.0 0 1 24.80 11.50
  L 12.95 11.50
  A 0.45 0.45 0.0 0 0 12.50 11.95
  L 12.50 17.30
  A 0.45 0.45 0.0 0 0 12.95 17.75
  L 24.80 17.75
  A 0.45 0.45 0.0 0 1 25.25 18.20
  L 25.25 24.30
  A 0.45 0.45 0.0 0 1 24.80 24.75
  L 12.95 24.75
  A 0.45 0.45 0.0 0 0 12.50 25.20
  Z"
/>
<path fill="#e40136" d="
  M 120.83 40.45
  L 118.29 33.78
  A 0.43 0.43 0.0 0 0 117.88 33.50
  L 103.97 33.50
  A 0.43 0.43 0.0 0 0 103.57 33.77
  L 100.94 40.48
  A 0.43 0.43 0.0 0 1 100.54 40.75
  L 94.01 40.76
  A 0.43 0.43 0.0 0 1 93.61 40.17
  L 107.17 5.03
  A 0.43 0.43 0.0 0 1 107.57 4.75
  L 114.23 4.75
  A 0.43 0.43 0.0 0 1 114.64 5.03
  L 128.20 40.23
  A 0.43 0.43 0.0 0 1 127.79 40.81
  L 121.22 40.72
  A 0.43 0.43 0.0 0 1 120.83 40.45
  Z
  M 106.59 26.05
  A 0.33 0.33 0.0 0 0 106.90 26.50
  L 115.00 26.50
  A 0.33 0.33 0.0 0 0 115.31 26.05
  L 111.26 15.48
  A 0.33 0.33 0.0 0 0 110.64 15.48
  L 106.59 26.05
  Z"
/>
<path fill="#e40136" d="
  M 150.50 34.52
  L 150.50 40.23
  A 0.52 0.52 0.0 0 1 149.98 40.75
  L 133.77 40.75
  A 0.52 0.52 0.0 0 1 133.25 40.23
  L 133.25 5.27
  A 0.52 0.52 0.0 0 1 133.77 4.75
  L 139.98 4.75
  A 0.52 0.52 0.0 0 1 140.50 5.27
  L 140.50 33.48
  A 0.52 0.52 0.0 0 0 141.02 34.00
  L 149.98 34.00
  A 0.52 0.52 0.0 0 1 150.50 34.52
  Z"
/>
<rect fill="#e40136" x="154.75" y="4.75" width="7.26" height="36.00" rx="0.51"/>
<path fill="#e40136" d="
  M 192.83 40.47
  L 190.29 33.74
  A 0.37 0.37 0.0 0 0 189.94 33.50
  L 175.95 33.50
  A 0.37 0.37 0.0 0 0 175.61 33.73
  L 172.89 40.52
  A 0.37 0.37 0.0 0 1 172.55 40.75
  L 165.91 40.75
  A 0.37 0.37 0.0 0 1 165.56 40.25
  L 179.18 4.99
  A 0.37 0.37 0.0 0 1 179.52 4.75
  L 186.27 4.75
  A 0.37 0.37 0.0 0 1 186.61 4.99
  L 200.20 40.31
  A 0.37 0.37 0.0 0 1 199.85 40.81
  L 193.17 40.71
  A 0.37 0.37 0.0 0 1 192.83 40.47
  Z
  M 178.51 26.08
  A 0.31 0.31 0.0 0 0 178.79 26.50
  L 187.05 26.50
  A 0.31 0.31 0.0 0 0 187.33 26.08
  L 183.21 15.53
  A 0.31 0.31 0.0 0 0 182.63 15.53
  L 178.51 26.08
  Z"
/>
</svg>
